<?xml version="1.0" encoding="UTF-8" standalone="no"?>
<!-- Created with Inkscape (http://www.inkscape.org/) -->

<svg
   version="1.1"
   id="svg1"
   width="289.93137"
   height="234.8056"
   viewBox="0 0 289.93137 234.8056"
   xmlns="http://www.w3.org/2000/svg"
   xmlns:svg="http://www.w3.org/2000/svg">
  <defs
     id="defs1" />
  <g
     id="g1"
     style="fill:#ffffff"
     transform="translate(-31.394569,-53.037953)">
    <path
       id="path4-1"
       style="fill:#ffffff;fill-opacity:1;stroke:none;stroke-width:0.5;stroke-linecap:butt;stroke-linejoin:miter;stroke-dasharray:none;stroke-opacity:1"
       d="m 59.223155,98.877701 c 2.728035,1.785659 13.71932,7.200879 23.633298,10.060969 8.86842,2.55847 15.665475,5.16924 16.904983,2.67973 0.489914,-0.98398 -6.803671,-4.79408 -10.190375,-7.119 C 77.768335,96.397002 66.356165,88.768312 58.136965,80.46126 47.559326,69.770561 39.691958,55.396981 35.468836,55.584872 c -4.223115,0.187886 1.580934,15.761054 5.073533,22.195309 4.784983,8.815151 13.512429,17.714518 18.680786,21.09752 z" />
    <path
       id="path9"
       style="fill:#ffffff;fill-opacity:1;stroke:none;stroke-width:0.5;stroke-linecap:butt;stroke-linejoin:round;stroke-dasharray:none;stroke-opacity:1"
       d="m 65.359375,53.046875 c -1.157712,-0.09864 -1.437158,0.645253 -1.549139,1.012553 -0.836493,2.7437 1.930728,10.549324 3.990545,16.378076 2.45631,6.950726 7.277128,15.569411 17.013672,24.558594 13.732014,12.677962 30.848847,18.980152 44.289067,25.935542 -7.23244,-1.71389 -14.9422,-3.62745 -20.6504,-4.87109 -4.51202,-0.98304 -8.14851,-1.99305 -8.560542,-1.26563 -1.226535,2.16536 6.466802,3.64102 8.423832,4.53516 9.37135,4.28165 10.67881,6.9683 11.42187,9.51172 C 108.04296,121.93114 94.53051,115.65294 81.652344,113.16016 69.634823,110.83398 60.43189,106.09286 52.238281,103.06445 43.082041,99.680245 33.44576,88.880591 32.160156,89.638672 c -3.009971,1.774887 3.164711,17.248668 13.102693,26.632358 3.499839,3.30463 7.568543,5.47557 11.662932,6.78366 5.831093,1.86294 10.784505,3.71488 15.605469,4.66406 8.248417,1.624 15.680237,0.22416 23.677734,2.4668 7.552886,2.11796 14.622876,6.00883 20.929686,9.89843 -6.5662,-1.29959 -15.93538,-4.32658 -26.466795,-5.85937 -11.46099,-1.66808 -23.936668,-2.49013 -34.451172,-3.69336 -8.504262,-0.97319 -20.144336,-5.32002 -21.818359,-3.43555 -2.966478,3.33941 8.861131,14.28586 11.773437,15.21875 5.599241,1.79359 12.087162,2.62171 19.626953,3.05078 5.672468,0.32281 16.92277,-1.75988 22.113282,-3.60546 9.534152,-3.39005 26.573664,1.76188 34.511714,4.21875 -5.92096,0.53262 -13.93524,0.7155 -19.2207,2.78125 -3.966041,1.55008 -7.824379,6.16335 -8.607421,3.61132 -1.613308,-5.25798 8.630591,-7.43194 8.283201,-8.62109 -0.26404,-0.90382 -5.839754,-0.36442 -9.105466,0.47852 -4.140241,1.06867 -11.900971,3.23982 -25.712891,6.9375 -9.294177,2.48821 -19.183957,-0.31806 -21.646484,0.87109 -3.221306,1.55555 0.712785,6.89147 13.394531,10.83008 9.900732,3.0749 23.75449,-4.35017 35.994141,-6.88867 5.500939,-1.14089 10.739299,-3.131 16.970699,-4.44532 2.46929,-0.52082 6.17589,-0.0343 8.47266,-0.71679 -8.76237,4.44937 -15.4751,12.32548 -22.564453,19.77929 9.629473,-4.26948 18.966633,-11.01192 27.218753,-17.76367 -3.5889,4.01511 -7.52766,9.4426 -11.92774,14.20508 -3.71329,4.01913 -7.81223,7.28992 -11.7207,11.62695 -5.703665,6.32908 -11.010951,13.03103 -17.337891,19.14844 -4.85814,4.69725 -12.796239,6.30398 -11.900391,8.4082 0.561593,1.3191 7.479981,0.50422 11.003906,-1.375 5.945749,-3.17072 12.238282,-9.05273 12.238282,-9.05273 0,0 -4.586415,13.61238 -4.898438,22.44336 -0.312023,8.83098 4.123743,28.12602 6.955078,26.85742 1.605441,-0.71932 -2.528627,-15.93034 -2.197265,-24.85156 0.331362,-8.92122 1.471095,-14.45587 6.484379,-25.08008 5.01327,-10.62421 26.2207,-36.05469 26.2207,-36.05469 0.0103,4.95589 -5.55027,12.79869 -11.06146,19.76206 -4.55163,5.75099 -8.85082,11.40212 -10.16901,13.83169 -2.91427,5.37134 -6.90741,15.80806 -7.55469,23.48047 -0.647274,7.67241 2.70703,20.94727 2.70703,20.94727 0,0 1.86362,-14.51351 3.84766,-21.875 1.98404,-7.36149 3.75604,-13.87925 8.12305,-22.08789 4.36701,-8.20864 18.88281,-26.14844 18.88281,-26.14844 0,0 -12.50491,19.96456 -16.53255,28.28639 -4.02764,8.32183 -5.87841,11.05818 -7.76433,21.5183 -1.33193,7.38745 -2.20445,18.4001 -1.02343,27.76367 2.19071,10.80498 6.08884,21.6956 13.94336,29.65234 2.72699,2.60751 7.11234,7.84235 9.22265,6.30078 1.33644,-0.97627 -3.51302,-8.40751 -7.5536,-18.44922 -3.45729,-8.59211 -5.76272,-15.65838 -6.33904,-20.54767 -0.91869,-7.79379 -2.37974,-23.6853 0.91345,-31.56704 0.29705,9.51474 3.00742,29.17728 10.43232,47.39596 3.82949,9.39653 9.90532,17.89233 14.60156,23.14063 5.32994,5.9565 12.83188,8.64128 15.81836,6.64844 1.39645,-0.93182 0.0242,-3.57111 -4.73242,-8.95899 -4.4254,-5.01269 -9.31165,-16.48125 -11.67578,-22.72461 -4.90522,-12.95403 -10.06449,-35.43239 -10.23828,-47.41797 -0.0732,-5.0461 0.67382,-9.92337 1.5625,-13.8789 1.22213,-5.43972 6.29101,-16.39258 6.29101,-16.39258 0,0 -3.50966,11.20435 -4.39062,16.28516 -0.44479,2.56528 -0.12265,5.85072 -0.041,9.85351 0.18474,9.06131 2.84196,24.90845 5.77344,36.3457 3.04476,11.51083 6.42162,21.57194 12.6914,31.81055 3.42515,5.47209 10.93121,16.02674 12.46289,15.45508 1.48162,-0.55299 -5.37837,-10.75233 -8.45703,-16.95899 -11.64232,-23.4712 -15.24519,-42.76712 -14.77539,-61.44921 0.4698,-18.6821 11.38783,-22.1719 12.09961,-33.46289 0.71178,-11.29099 -9.34544,-14.5593 -9.18164,-31.22071 0.1638,-16.66141 10.98885,-22.28427 -2.34765,-40 -2.91499,-3.87213 -8.11208,-8.025485 -15.58985,-12.341794 -4.27785,-2.469257 -9.95356,-4.784636 -14.21094,-7.691407 -3.44568,-2.352572 -10.31162,-7.157474 -11.34179,-6.226562 -1.54915,1.399885 4.48128,7.477913 8.68164,10.949219 7.90895,6.536193 19.70298,11.949054 23.14062,15.015624 3.10603,2.77076 6.31396,6.39567 8.28516,10.55664 1.36911,2.89003 2.01125,6.35146 2.15039,8.66406 0.28771,4.78192 -1.85119,13.52061 -1.42188,23.5625 0.38745,9.06277 2.33385,17.55917 5.80469,21.67774 -1.50033,-0.1121 -10.34869,-14.23319 -7.43359,-31.98438 1.07181,-6.52667 0.6897,-14.35748 -1.68164,-20.18164 -1.93076,-4.74206 -4.87403,-7.54653 -8.3086,-10.30664 -6.52717,-5.24543 -14.43374,-8.353412 -17.75976,-10.417967 C 106.08592,90.38995 99.973288,84.159703 89.783203,77.986328 84.472129,74.768764 79.961279,68.927539 76.298828,64.609375 72.86528,60.561097 68.609321,53.323698 65.359375,53.046875 Z m 9.522551,17.104037 c 2.623396,2.737232 6.35597,7.669596 8.333352,9.980634 6.42396,7.507916 17.255572,11.851811 27.497612,19.436813 4.08022,3.021711 8.66145,6.763401 13.49859,9.690031 4.83715,2.92664 9.09025,5.84007 10.98318,10.5395 2.00417,4.97556 2.69734,9.43129 1.78972,15.29781 -0.90767,5.86652 -0.78835,12.82316 0.25,17.73828 0.91363,4.32484 2.91555,8.47494 6.16406,13.10743 3.01985,4.10749 5.16528,8.83318 5.16015,14.00195 -0.16857,4.40685 -2.35524,8.29609 -3.92382,12.31055 -0.9612,2.55472 -1.87302,4.0877 -2.76717,8.42338 -1.32505,6.42513 -1.24732,10.42797 -1.42424,15.10201 -0.74946,-5.63051 -1.136,-6.83211 -0.53125,-14.30469 0.49285,-6.08994 1.28205,-7.67007 2.66406,-10.8418 1.52863,-3.31405 2.84582,-6.72983 3.11914,-10.40234 0.16583,-4.40242 -2.62484,-9.30092 -4.86133,-12.49024 -3.12498,-4.45632 -5.50339,-8.75437 -6.66601,-14.25781 -1.22005,-5.7753 -1.18027,-13.04193 -0.2793,-18.86523 0.90095,-5.82329 0.87287,-10.55856 -0.67383,-14.39844 -1.42738,-3.54365 -5.17706,-5.99004 -9.84327,-8.81326 -4.66622,-2.82321 -9.84179,-6.43553 -14.5454,-9.33713 C 98.369452,95.617742 89.665155,90.063715 82.880859,82.882812 c -2.176572,-2.303813 -7.1239,-7.891899 -9.524176,-11.472291 -1.081902,-1.613828 -1.603122,-2.850531 -1.206292,-3.133177 0.39683,-0.282646 2.23978,1.360475 2.731535,1.873568 z m 7.268465,47.241668 c 1.559064,0.0123 4.271407,1.26328 8.107421,2.21289 8.58062,2.12415 25.384598,11.44263 31.810548,17.00195 -8.8821,-3.03882 -20.42518,-7.86375 -27.169922,-10.70508 -6.744743,-2.84133 -15.351518,-4.21778 -14.15625,-7.61328 0.228994,-0.65053 0.699537,-0.90207 1.408203,-0.89648 z m 43.824219,84.39453 c 0,0 2.08823,18.80925 3.68562,27.74291 1.59738,8.93366 5.86321,25.83912 5.86321,25.83912 0,0 -6.25867,-15.78396 -7.92817,-24.86331 -1.66951,-9.07934 -1.62066,-28.71872 -1.62066,-28.71872 z" />
    <path
       id="path4-1-6"
       style="fill:#ffffff;fill-opacity:1;stroke:none;stroke-width:0.5;stroke-linecap:butt;stroke-linejoin:miter;stroke-dasharray:none;stroke-opacity:1"
       d="m 293.4816,98.92597 c -2.72803,1.78565 -13.71932,7.20087 -23.63329,10.06096 -8.86842,2.55847 -15.66548,5.16924 -16.90499,2.67973 -0.48991,-0.98398 6.80368,-4.79408 10.19038,-7.119 11.80273,-8.102394 23.2149,-15.731084 31.4341,-24.038136 10.57763,-10.690699 18.445,-25.064279 22.66812,-24.876388 4.22312,0.187886 -1.58093,15.761054 -5.07353,22.195309 -4.78498,8.815151 -13.51243,17.714518 -18.68079,21.097525 z" />
    <path
       id="path9-3"
       style="fill:#ffffff;fill-opacity:1;stroke:none;stroke-width:0.5;stroke-linecap:butt;stroke-linejoin:round;stroke-dasharray:none;stroke-opacity:1"
       d="m 287.36113,53.079235 c 1.15771,-0.09864 1.43715,0.645253 1.54913,1.012553 0.8365,2.7437 -1.93072,10.549324 -3.99054,16.378076 -2.45631,6.950726 -7.27713,15.569408 -17.01367,24.558598 -13.73202,12.677958 -30.84885,18.980148 -44.28907,25.935538 7.23244,-1.71389 14.9422,-3.62745 20.6504,-4.87109 4.51202,-0.98304 8.14851,-1.99305 8.56054,-1.26563 1.22654,2.16536 -6.4668,3.64102 -8.42383,4.53516 -9.37135,4.28165 -10.67881,6.9683 -11.42187,9.51172 11.69532,-6.91066 25.20777,-13.18886 38.08594,-15.68164 12.01752,-2.32618 21.22045,-7.0673 29.41406,-10.09571 9.15624,-3.38421 18.79252,-14.183858 20.07812,-13.425778 3.00998,1.77489 -3.16471,17.248668 -13.10269,26.632358 -3.49984,3.30463 -7.56854,5.47557 -11.66293,6.78366 -5.83109,1.86294 -10.78451,3.71488 -15.60547,4.66406 -8.24842,1.624 -15.68024,0.22416 -23.67773,2.4668 -7.55289,2.11796 -14.62288,6.00883 -20.92969,9.89843 6.5662,-1.29959 15.93538,-4.32658 26.4668,-5.85937 11.46098,-1.66808 23.93666,-2.49013 34.45117,-3.69336 8.50426,-0.97319 20.14433,-5.32002 21.81836,-3.43555 2.96647,3.33941 -8.86113,14.28586 -11.77344,15.21875 -5.59924,1.79359 -12.08716,2.62171 -19.62695,3.05078 -5.67247,0.32281 -16.92277,-1.75988 -22.11329,-3.60546 -9.53415,-3.39005 -26.57366,1.76188 -34.51171,4.21875 5.92096,0.53262 13.93524,0.7155 19.2207,2.78125 3.96604,1.55008 7.82438,6.16335 8.60742,3.61132 1.61331,-5.25798 -8.63059,-7.43194 -8.2832,-8.62109 0.26404,-0.90382 5.83975,-0.36442 9.10547,0.47852 4.14024,1.06867 11.90097,3.23982 25.71289,6.9375 9.29417,2.48821 19.18395,-0.31806 21.64648,0.87109 3.22131,1.55555 -0.71278,6.89147 -13.39453,10.83008 -9.90073,3.0749 -23.75449,-4.35017 -35.99414,-6.88867 -5.50094,-1.14089 -10.7393,-3.131 -16.9707,-4.44532 -2.46929,-0.52082 -6.17589,-0.0343 -8.47266,-0.71679 8.76237,4.44937 15.4751,12.32548 22.56445,19.77929 -9.62947,-4.26948 -18.96663,-11.01192 -27.21875,-17.76367 3.5889,4.01511 7.52766,9.4426 11.92774,14.20508 3.71329,4.01913 7.81223,7.28992 11.7207,11.62695 5.70366,6.32908 11.01095,13.03103 17.33789,19.14844 4.85814,4.69725 12.79624,6.30398 11.90039,8.4082 -0.56159,1.3191 -7.47998,0.50422 -11.0039,-1.375 -5.94575,-3.17072 -12.23829,-9.05273 -12.23829,-9.05273 0,0 4.58642,13.61238 4.89844,22.44336 0.31202,8.83098 -4.12374,28.12602 -6.95508,26.85742 -1.60544,-0.71932 2.52863,-15.93034 2.19727,-24.85156 -0.33136,-8.92122 -1.4711,-14.45587 -6.48438,-25.08008 -5.01327,-10.62421 -26.2207,-36.05469 -26.2207,-36.05469 -0.0103,4.95589 5.55027,12.79869 11.06146,19.76206 4.55163,5.75099 8.85082,11.40212 10.16901,13.83169 2.91427,5.37134 6.90741,15.80806 7.55469,23.48047 0.64727,7.67241 -2.70703,20.94727 -2.70703,20.94727 0,0 -1.86362,-14.51351 -3.84766,-21.875 -1.98404,-7.36149 -3.75604,-13.87925 -8.12305,-22.08789 -4.36701,-8.20864 -18.88281,-26.14844 -18.88281,-26.14844 0,0 12.50491,19.96456 16.53255,28.28639 4.02764,8.32183 5.87841,11.05818 7.76433,21.5183 1.33193,7.38745 2.20445,18.4001 1.02343,27.76367 -2.19071,10.80498 -6.08884,21.6956 -13.94336,29.65234 -2.72699,2.60751 -7.11234,7.84235 -9.22265,6.30078 -1.33644,-0.97627 3.51302,-8.40751 7.5536,-18.44922 3.45729,-8.59211 5.76272,-15.65838 6.33904,-20.54767 0.91869,-7.79379 2.37974,-23.6853 -0.91345,-31.56704 -0.29705,9.51474 -3.00742,29.17728 -10.43232,47.39596 -3.82949,9.39653 -9.90532,17.89233 -14.60156,23.14063 -5.32994,5.9565 -12.83188,8.64128 -15.81836,6.64844 -1.39645,-0.93182 -0.0242,-3.57111 4.73242,-8.95899 4.4254,-5.01269 9.31165,-16.48125 11.67578,-22.72461 4.90522,-12.95403 10.06449,-35.43239 10.23828,-47.41797 0.0732,-5.0461 -0.67382,-9.92337 -1.5625,-13.8789 -1.22213,-5.43972 -6.29101,-16.39258 -6.29101,-16.39258 0,0 3.50966,11.20435 4.39062,16.28516 0.44479,2.56528 0.12265,5.85072 0.041,9.85351 -0.18474,9.06131 -2.84196,24.90845 -5.77344,36.3457 -3.04476,11.51083 -6.42162,21.57194 -12.6914,31.81055 -3.42515,5.47209 -10.93121,16.02674 -12.46289,15.45508 -1.48162,-0.55299 5.37837,-10.75233 8.45703,-16.95899 11.64232,-23.4712 15.24519,-42.76712 14.77539,-61.44921 -0.4698,-18.6821 -11.38783,-22.1719 -12.09961,-33.46289 -0.71178,-11.29099 9.34544,-14.5593 9.18164,-31.22071 -0.1638,-16.66141 -10.98885,-22.28427 2.34765,-40 2.91499,-3.87213 8.11208,-8.025488 15.58985,-12.341798 4.27785,-2.46925 9.95356,-4.78463 14.21094,-7.691403 3.44568,-2.352572 10.31162,-7.157474 11.34179,-6.226562 1.54915,1.399885 -4.48128,7.477915 -8.68164,10.949215 -7.90895,6.5362 -19.70298,11.949058 -23.14062,15.015628 -3.10603,2.77076 -6.31396,6.39567 -8.28516,10.55664 -1.36911,2.89003 -2.01125,6.35146 -2.15039,8.66406 -0.28771,4.78192 1.85119,13.52061 1.42188,23.5625 -0.38745,9.06277 -2.33385,17.55917 -5.80469,21.67774 1.50033,-0.1121 10.34869,-14.23319 7.43359,-31.98438 -1.07181,-6.52667 -0.6897,-14.35748 1.68164,-20.18164 1.93076,-4.74206 4.87403,-7.54653 8.3086,-10.30664 6.52717,-5.24543 14.43374,-8.353408 17.75976,-10.417968 8.58793,-5.33075 14.70056,-11.560999 24.89065,-17.734374 5.31107,-3.217564 9.82192,-9.058789 13.48437,-13.376953 3.43355,-4.048278 7.68951,-11.285677 10.93946,-11.5625 z m -9.52256,17.104037 c -2.62339,2.737232 -6.35597,7.669596 -8.33335,9.980634 -6.42396,7.507916 -17.25557,11.851806 -27.49761,19.436814 -4.08022,3.02171 -8.66145,6.7634 -13.49859,9.69003 -4.83715,2.92664 -9.09025,5.84007 -10.98318,10.5395 -2.00417,4.97556 -2.69734,9.43129 -1.78972,15.29781 0.90767,5.86652 0.78835,12.82316 -0.25,17.73828 -0.91363,4.32484 -2.91555,8.47494 -6.16406,13.10743 -3.01985,4.10749 -5.16528,8.83318 -5.16015,14.00195 0.16857,4.40685 2.35524,8.29609 3.92382,12.31055 0.9612,2.55472 1.87302,4.0877 2.76717,8.42338 1.32505,6.42513 1.24732,10.42797 1.42424,15.10201 0.74946,-5.63051 1.136,-6.83211 0.53125,-14.30469 -0.49285,-6.08994 -1.28205,-7.67007 -2.66406,-10.8418 -1.52863,-3.31405 -2.84582,-6.72983 -3.11914,-10.40234 -0.16583,-4.40242 2.62484,-9.30092 4.86133,-12.49024 3.12498,-4.45632 5.50339,-8.75437 6.66601,-14.25781 1.22005,-5.7753 1.18027,-13.04193 0.2793,-18.86523 -0.90095,-5.82329 -0.87287,-10.55856 0.67383,-14.39844 1.42738,-3.54365 5.17706,-5.99004 9.84327,-8.81326 4.66622,-2.82321 9.84179,-6.43553 14.5454,-9.33713 10.45672,-6.450618 19.16102,-12.004648 25.94531,-19.185548 2.17657,-2.303813 7.1239,-7.891899 9.52418,-11.472291 1.0819,-1.613828 1.60312,-2.850531 1.20629,-3.133177 -0.39683,-0.282646 -2.23978,1.360475 -2.73154,1.873568 z m -7.26846,47.241668 c -1.55907,0.0123 -4.27141,1.26328 -8.10742,2.21289 -8.58062,2.12415 -25.3846,11.44263 -31.81055,17.00195 8.8821,-3.03882 20.42518,-7.86375 27.16992,-10.70508 6.74475,-2.84133 15.35152,-4.21778 14.15625,-7.61328 -0.22899,-0.65053 -0.69954,-0.90207 -1.4082,-0.89648 z m -43.82422,84.39453 c 0,0 -2.08823,18.80925 -3.68562,27.74291 -1.59738,8.93366 -5.86321,25.83912 -5.86321,25.83912 0,0 6.25867,-15.78396 7.92817,-24.86331 1.66951,-9.07934 1.62066,-28.71872 1.62066,-28.71872 z" />
    <path
       d="m 176.12736,69.661345 c 1.51362,0 1.88418,46.578555 1.9195,78.631495 0.0353,32.05294 -0.25673,113.667 -2.2218,113.667 -1.96507,0 -1.92655,-81.89696 -1.70587,-113.95812 0.22068,-32.06116 0.49455,-78.340375 2.00817,-78.340375 z"
       id="text11"
       style="font-size:40px;line-height:1.25;fill:#ffffff;fill-opacity:1;stroke:none"
       aria-label="|" />
  </g>
</svg>
